<?xml version="1.0" standalone="no"?>
<!DOCTYPE svg PUBLIC "-//W3C//DTD SVG 20010904//EN"
 "http://www.w3.org/TR/2001/REC-SVG-20010904/DTD/svg10.dtd">
<svg version="1.0" xmlns="http://www.w3.org/2000/svg"
 width="500.000000pt" height="500.000000pt" viewBox="0 0 500.000000 500.000000"
 preserveAspectRatio="xMidYMid meet">

<g transform="translate(0.000000,500.000000) scale(0.100000,-0.100000)"
fill="#000000" stroke="none">
<path d="M2090 3714 l-185 -141 -3 -348 c-1 -216 1 -352 7 -358 6 -6 43 -25
83 -42 l73 -32 0 -87 c0 -47 -2 -315 -3 -596 l-2 -510 -40 0 -40 0 0 470 c0
259 -2 470 -4 470 -2 0 -11 3 -20 6 -14 6 -16 -40 -16 -475 0 -401 -2 -481
-14 -481 -7 0 -28 -3 -45 -6 l-31 -6 0 505 c0 451 -2 506 -16 511 -9 3 -18 6
-20 6 -2 0 -4 -232 -4 -515 0 -430 -2 -515 -14 -515 -7 0 -28 -3 -45 -6 l-31
-6 -2 543 c-3 509 -4 544 -20 547 -17 3 -18 -28 -18 -546 l0 -550 -32 -7 c-18
-4 -41 -9 -50 -11 -17 -5 -18 35 -20 714 l-3 720 -160 -113 -160 -113 -5 -647
-5 -647 -150 -52 c-82 -29 -197 -73 -255 -98 -104 -45 -324 -155 -285 -143
669 209 1474 309 2218 277 621 -27 1084 -104 1675 -278 30 -9 -140 78 -243
124 -136 60 -365 143 -507 183 l-118 32 -2 671 c-3 630 -4 671 -20 674 -17 3
-18 -34 -18 -666 l0 -669 -45 10 -45 10 0 678 c0 608 -2 677 -16 683 -9 3 -18
6 -20 6 -2 0 -4 -306 -4 -681 0 -643 -1 -680 -17 -675 -10 3 -30 8 -45 12
l-28 6 -2 686 c-3 645 -4 687 -20 690 -17 3 -18 -35 -18 -684 l0 -687 -37 7
c-21 3 -46 6 -55 6 -17 0 -18 48 -20 830 l-3 830 -152 -107 -153 -108 0 -704
0 -704 -37 7 c-21 3 -53 6 -70 6 l-33 0 0 879 c0 870 0 879 -20 884 -20 5 -20
0 -20 -879 l0 -884 -45 0 -45 0 -2 902 c-3 851 -4 903 -20 906 -17 3 -18 -45
-18 -902 l0 -906 -135 0 -135 0 -2 1118 -3 1118 -185 -142z"/>
<path d="M2420 2555 c0 -918 0 -925 20 -925 20 0 20 7 20 919 0 829 -2 919
-16 925 -9 3 -18 6 -20 6 -2 0 -4 -416 -4 -925z"/>
</g>
</svg>
